<?xml version="1.0" standalone="no"?>
<!DOCTYPE svg PUBLIC "-//W3C//DTD SVG 20010904//EN"
 "http://www.w3.org/TR/2001/REC-SVG-20010904/DTD/svg10.dtd">
<svg version="1.0" xmlns="http://www.w3.org/2000/svg"
 width="772.000000pt" height="772.000000pt" viewBox="0 0 772.000000 772.000000"
 preserveAspectRatio="xMidYMid meet">
<metadata>
Created by potrace 1.11, written by Peter Selinger 2001-2013
</metadata>
<g transform="translate(0.000000,772.000000) scale(0.100000,-0.100000)"
fill="#000000" stroke="none">
<path d="M3421 7703 c-6 -10 -11 -13 -11 -7 0 6 -10 10 -22 8 -13 -1 -27 -3
-31 -3 -5 -1 -5 -7 -1 -13 5 -9 2 -9 -9 1 -9 7 -17 9 -17 4 0 -6 -11 -8 -25
-5 -14 2 -33 -2 -42 -9 -14 -12 -15 -12 -9 -1 7 12 4 12 -15 1 -13 -7 -34 -12
-47 -10 -13 1 -30 -3 -38 -9 -11 -10 -14 -10 -14 -1 0 7 -5 9 -12 4 -7 -4 -22
-9 -33 -10 -10 -2 -23 -9 -27 -16 -6 -9 -8 -8 -8 3 0 11 -3 12 -8 3 -4 -6 -20
-10 -35 -9 -15 2 -27 -1 -27 -6 0 -6 -7 -7 -16 -4 -9 4 -13 2 -8 -5 4 -8 -1
-9 -16 -4 -12 4 -20 3 -17 -1 3 -5 -5 -10 -16 -10 -45 -3 -67 -8 -67 -16 0 -4
-9 -5 -20 -3 -11 2 -20 -1 -20 -7 0 -6 -11 -8 -24 -6 -15 3 -27 0 -30 -8 -3
-7 -15 -11 -26 -9 -17 3 -20 0 -16 -12 5 -13 4 -14 -8 -4 -10 9 -16 9 -21 1
-4 -6 -13 -9 -21 -6 -8 3 -14 1 -14 -3 0 -5 -7 -12 -16 -15 -10 -4 -13 -2 -8
7 4 6 -2 4 -13 -6 -11 -10 -27 -17 -34 -15 -8 2 -13 -3 -12 -9 2 -7 -4 -13
-13 -13 -9 0 -12 5 -8 13 4 6 -2 4 -13 -6 -11 -9 -23 -14 -26 -10 -4 3 -7 1
-7 -6 0 -7 -4 -10 -9 -7 -5 3 -21 -1 -37 -9 -15 -7 -32 -11 -37 -8 -6 4 -8 0
-4 -10 4 -11 2 -14 -9 -10 -8 3 -22 -3 -30 -13 -9 -11 -13 -13 -9 -6 3 6 1 12
-4 12 -6 0 -11 -4 -11 -10 0 -5 -6 -10 -14 -10 -8 0 -16 -7 -19 -15 -4 -8 -15
-12 -27 -10 -11 2 -20 0 -20 -6 0 -5 -7 -9 -16 -9 -9 0 -23 -8 -31 -17 -8 -11
-11 -12 -7 -3 7 12 5 13 -8 3 -8 -7 -18 -9 -22 -5 -4 4 -6 0 -4 -8 2 -10 -3
-14 -16 -12 -11 2 -15 -1 -11 -7 3 -7 -2 -11 -14 -11 -12 0 -21 -5 -21 -12 0
-6 -3 -8 -7 -5 -3 4 -15 -1 -26 -10 -15 -13 -18 -14 -12 -3 8 13 6 13 -8 1 -9
-7 -14 -18 -10 -25 4 -6 -2 -4 -12 4 -11 9 -16 10 -11 3 4 -8 1 -13 -8 -13 -9
0 -16 -5 -16 -11 0 -5 -4 -8 -9 -4 -6 3 -14 -3 -20 -12 -6 -10 -11 -13 -11 -8
0 6 -4 4 -9 -3 -4 -7 -17 -15 -27 -17 -10 -2 -21 -4 -24 -4 -3 -1 2 -6 10 -12
12 -9 12 -10 -4 -5 -12 4 -25 -1 -37 -15 -10 -11 -23 -18 -28 -14 -6 3 -11 -2
-11 -12 0 -15 -2 -16 -10 -3 -8 12 -10 10 -11 -10 0 -14 -3 -19 -6 -12 -3 9
-10 7 -23 -9 -11 -11 -23 -18 -29 -15 -5 4 -13 1 -17 -5 -5 -8 -3 -9 6 -4 9 5
11 4 6 -3 -4 -7 -12 -12 -17 -12 -16 0 -39 -27 -31 -36 4 -5 -2 -2 -13 6 -11
8 -17 11 -13 6 8 -10 -9 -29 -35 -39 -10 -4 -15 -12 -12 -17 4 -6 3 -10 -2 -9
-20 3 -44 -2 -40 -8 3 -5 -1 -14 -9 -21 -8 -7 -14 -10 -14 -7 0 3 -6 0 -14 -7
-8 -7 -11 -17 -9 -22 3 -5 0 -7 -7 -4 -15 5 -70 -45 -70 -62 0 -6 -4 -9 -9 -6
-11 7 -33 -19 -24 -28 4 -4 0 -4 -10 0 -10 3 -17 1 -17 -6 0 -6 -4 -8 -10 -5
-5 3 -10 0 -10 -7 0 -16 -35 -48 -53 -48 -8 0 -7 -4 3 -10 12 -8 12 -10 1 -10
-7 0 -30 -17 -49 -37 -20 -21 -40 -37 -45 -35 -5 2 -7 -4 -3 -13 3 -9 2 -13
-4 -10 -6 3 -10 1 -10 -5 0 -6 -4 -8 -10 -5 -5 3 -10 1 -10 -6 0 -7 -17 -28
-38 -47 -20 -19 -30 -31 -22 -26 10 5 8 0 -4 -14 -11 -12 -25 -22 -33 -22 -8
0 -11 -4 -8 -10 3 -5 -1 -10 -9 -10 -9 0 -15 -3 -14 -7 3 -17 -16 -44 -41 -58
-14 -8 -20 -14 -14 -15 17 0 -17 -40 -34 -40 -7 0 -10 -7 -7 -15 4 -8 -1 -17
-10 -21 -9 -3 -13 -10 -10 -15 3 -5 0 -9 -6 -9 -6 0 -16 -11 -22 -25 -7 -15
-17 -24 -25 -21 -8 3 -13 0 -11 -7 3 -20 -13 -58 -23 -52 -5 4 -9 -1 -9 -9 0
-8 -9 -20 -20 -26 -11 -6 -19 -14 -19 -18 3 -18 -2 -32 -12 -32 -5 0 -7 5 -3
12 4 6 3 8 -4 5 -5 -4 -8 -15 -5 -26 2 -10 -3 -25 -11 -34 -9 -8 -16 -20 -16
-26 0 -6 -5 -11 -11 -11 -5 0 -7 -4 -4 -10 3 -5 -1 -10 -9 -10 -9 0 -13 -7
-11 -20 2 -12 -4 -24 -16 -31 -11 -6 -19 -15 -17 -21 2 -6 -7 -23 -20 -37 -14
-15 -21 -33 -18 -44 2 -10 2 -16 -1 -13 -9 9 -47 -56 -47 -82 -1 -12 -7 -26
-14 -31 -8 -5 -14 -12 -15 -17 -1 -5 -5 -8 -9 -7 -4 2 -4 -5 -1 -14 4 -11 3
-14 -5 -9 -8 5 -10 2 -6 -8 4 -10 1 -16 -7 -16 -7 0 -9 -3 -6 -6 4 -4 -3 -20
-15 -37 -12 -17 -16 -27 -9 -23 10 7 11 4 2 -13 -7 -11 -17 -21 -24 -21 -7 0
-6 -4 3 -10 11 -7 11 -10 2 -10 -7 0 -10 -4 -7 -10 3 -5 1 -10 -5 -10 -7 0
-10 -7 -7 -15 4 -8 2 -17 -4 -21 -6 -3 -8 -12 -5 -20 3 -8 2 -13 -2 -11 -4 1
-8 -2 -9 -7 -1 -5 -7 -13 -15 -17 -11 -7 -10 -9 1 -9 11 0 10 -4 -5 -16 -10
-8 -12 -12 -4 -8 10 5 9 1 -4 -14 -10 -12 -16 -28 -13 -36 4 -9 -1 -20 -11
-25 -11 -7 -12 -10 -4 -11 10 0 10 -4 -2 -15 -8 -8 -13 -24 -11 -35 3 -13 0
-18 -7 -14 -7 5 -9 0 -6 -14 3 -12 1 -23 -4 -24 -6 -2 -12 -15 -13 -28 -1 -14
-3 -25 -4 -25 -2 0 -5 -11 -7 -25 -2 -13 -8 -27 -12 -30 -4 -3 -8 -19 -7 -37
0 -17 -4 -29 -9 -25 -5 3 -7 -2 -3 -11 3 -9 2 -19 -3 -22 -5 -3 -8 -19 -6 -35
2 -16 0 -28 -3 -26 -3 3 -11 -6 -17 -19 -10 -20 -9 -23 5 -18 15 4 15 3 0 -9
-9 -7 -14 -18 -12 -25 2 -7 -1 -21 -7 -32 -8 -16 -8 -21 2 -21 10 0 10 -3 -1
-9 -8 -5 -11 -16 -8 -25 4 -9 2 -16 -4 -16 -6 0 -7 -5 -4 -10 4 -6 1 -17 -5
-25 -9 -11 -9 -15 -1 -15 9 0 9 -5 0 -21 -6 -12 -9 -30 -6 -40 3 -10 0 -19 -5
-19 -7 0 -6 -5 1 -14 10 -11 8 -17 -6 -25 -14 -8 -15 -13 -5 -19 16 -11 4 -45
-12 -35 -6 4 -5 -1 3 -10 7 -9 10 -17 5 -17 -5 0 -10 -11 -10 -25 -1 -14 2
-22 7 -19 5 3 4 -7 -1 -21 -6 -15 -10 -149 -10 -321 0 -233 3 -294 13 -288 9
6 9 4 0 -7 -15 -16 -17 -33 -3 -24 6 4 7 -2 1 -18 -6 -16 -6 -28 2 -36 6 -6 7
-11 1 -11 -5 0 -2 -5 6 -10 13 -9 13 -11 0 -20 -12 -8 -13 -12 -1 -19 10 -7
11 -13 1 -31 -8 -15 -8 -20 -1 -16 7 5 11 -4 11 -23 0 -16 4 -32 10 -36 6 -3
6 -15 0 -30 -7 -18 -5 -28 6 -40 9 -8 11 -15 5 -15 -6 0 -8 -7 -5 -15 4 -8 11
-12 16 -9 6 4 4 -4 -2 -17 -10 -17 -10 -24 -1 -27 6 -2 9 -8 5 -13 -3 -5 1 -9
8 -9 9 0 9 -3 -2 -10 -9 -6 -11 -10 -3 -10 7 0 10 -7 7 -15 -4 -9 0 -15 7 -15
11 0 11 -3 -1 -10 -8 -5 -10 -10 -5 -10 10 0 14 -14 17 -57 1 -7 5 -13 9 -13
4 0 5 -10 1 -22 -3 -11 -1 -19 4 -16 5 4 10 -6 10 -20 2 -42 12 -75 26 -84 10
-6 9 -8 -2 -8 -13 0 -13 -2 -1 -9 8 -5 12 -18 8 -30 -3 -14 -1 -19 6 -14 7 4
8 0 4 -11 -4 -10 -3 -15 3 -11 6 4 10 -7 10 -25 0 -17 4 -29 8 -26 4 2 9 -4
10 -15 4 -41 6 -49 11 -49 4 0 8 -12 9 -26 3 -34 11 -46 25 -37 8 4 8 2 -1 -9
-10 -13 -10 -17 4 -22 10 -4 14 -13 11 -26 -3 -11 -1 -20 5 -20 5 0 6 -4 3
-10 -3 -6 -2 -10 3 -10 6 0 13 -7 16 -16 4 -10 2 -13 -7 -8 -6 4 -4 -2 5 -13
10 -11 18 -29 18 -41 0 -12 4 -22 9 -22 7 0 22 -36 20 -49 0 -2 4 -7 10 -11 6
-3 13 -17 16 -30 2 -12 11 -30 20 -40 8 -9 12 -20 8 -23 -3 -4 -1 -7 5 -7 10
0 28 -38 24 -52 -1 -5 3 -8 9 -8 5 0 7 -4 4 -10 -3 -5 -1 -10 5 -10 6 0 9 -8
6 -18 -4 -11 4 -25 23 -41 18 -15 27 -30 23 -39 -3 -9 -1 -13 5 -9 6 4 14 0
17 -9 4 -10 2 -13 -7 -9 -6 4 -4 0 6 -8 10 -9 18 -18 18 -21 -3 -20 1 -26 14
-26 8 0 14 -3 14 -7 -3 -20 2 -34 11 -28 6 3 7 -1 4 -9 -3 -9 -1 -16 4 -16 11
0 28 -38 24 -54 -2 -5 4 -6 12 -3 11 4 13 1 9 -10 -4 -11 -2 -14 5 -9 7 4 12
1 12 -7 0 -8 7 -17 15 -21 8 -3 15 -12 15 -21 0 -8 4 -15 10 -15 5 0 9 -3 9
-8 -3 -17 2 -33 9 -29 12 8 32 -19 32 -44 0 -5 5 -7 10 -4 6 4 10 3 9 -2 -4
-22 2 -35 14 -30 10 4 13 -2 9 -19 -2 -14 0 -24 7 -24 7 0 9 5 5 13 -5 8 -2 8
9 -2 9 -7 17 -21 17 -31 0 -10 8 -20 19 -23 10 -2 24 -18 32 -35 7 -17 17 -28
21 -26 4 3 8 0 8 -6 0 -6 5 -8 10 -5 5 3 10 -4 10 -15 0 -15 5 -20 14 -17 10
4 14 0 11 -14 -4 -17 6 -24 28 -20 5 1 6 -3 2 -9 -3 -5 -1 -10 5 -10 6 0 9 -4
5 -9 -3 -5 4 -12 15 -16 11 -3 20 -11 20 -16 0 -6 5 -7 12 -3 6 4 8 3 4 -4 -3
-6 7 -20 24 -32 17 -12 28 -26 25 -31 -4 -5 0 -9 7 -9 7 0 19 -9 26 -20 7 -11
20 -20 30 -20 14 0 15 -2 2 -10 -13 -9 -13 -10 0 -10 19 0 51 -35 42 -46 -4
-4 -2 -4 5 0 6 3 16 -2 22 -11 6 -10 11 -14 11 -10 0 12 30 -20 30 -32 0 -6 3
-10 8 -10 17 3 32 -1 29 -8 -1 -5 2 -9 7 -10 5 0 13 -8 18 -17 5 -9 13 -16 19
-16 15 0 59 -47 51 -54 -3 -4 1 -4 11 0 12 4 17 1 17 -11 0 -9 4 -14 9 -10 6
3 14 -2 19 -11 5 -9 13 -17 18 -17 5 -1 8 -6 6 -10 -1 -5 1 -6 6 -3 12 7 74
-39 65 -48 -4 -4 1 -4 10 0 13 5 20 1 24 -15 3 -11 9 -19 13 -16 5 3 15 -2 23
-10 9 -8 21 -15 27 -15 6 0 8 -5 4 -12 -4 -6 -3 -8 4 -4 6 3 17 0 25 -8 8 -8
17 -12 21 -9 3 4 6 1 6 -5 0 -7 6 -11 13 -10 6 2 11 -2 10 -9 -2 -7 6 -10 17
-8 12 2 19 1 16 -3 -5 -9 20 -33 27 -26 5 6 38 -11 76 -38 13 -10 28 -15 34
-11 5 3 8 2 5 -3 -3 -5 4 -18 15 -28 20 -19 20 -19 14 0 -7 18 -6 18 7 1 7
-10 20 -16 27 -15 8 2 13 -3 11 -10 -1 -8 2 -11 8 -7 6 4 18 -1 26 -11 9 -11
12 -13 8 -5 -5 10 -3 12 7 5 8 -5 19 -9 24 -9 6 -1 9 -7 7 -14 -1 -7 2 -10 8
-6 5 3 10 0 10 -7 0 -11 2 -10 9 0 6 11 10 10 15 -3 3 -10 12 -15 21 -11 8 3
19 -3 24 -12 7 -11 10 -12 11 -4 0 11 3 11 15 0 38 -34 45 -39 45 -28 0 6 7 4
16 -4 8 -9 20 -14 25 -11 5 4 9 1 9 -5 0 -6 5 -8 10 -5 6 3 10 1 10 -6 0 -7 3
-9 7 -6 3 4 17 0 31 -9 17 -11 22 -12 17 -3 -5 8 1 5 13 -5 17 -14 22 -16 22
-5 0 11 2 11 10 -1 5 -8 14 -16 20 -16 5 -1 11 -2 13 -3 1 -2 13 -5 27 -7 13
-2 27 -8 30 -12 5 -7 24 -13 52 -15 10 -1 18 -5 18 -9 0 -4 10 -8 23 -8 13 0
29 -6 36 -12 10 -9 12 -9 7 -1 -4 7 4 6 24 -3 16 -9 34 -13 40 -9 5 3 10 1 10
-5 0 -6 4 -9 9 -6 4 3 17 -1 27 -8 13 -10 23 -11 31 -4 9 7 13 7 13 -1 0 -6
14 -11 30 -11 17 0 30 -5 30 -12 0 -9 4 -8 10 2 5 8 10 10 10 4 0 -7 7 -15 16
-18 10 -4 13 -2 8 6 -5 8 -2 9 12 4 10 -5 25 -9 32 -9 6 0 12 -4 12 -9 0 -11
23 -6 32 7 5 6 8 5 8 -2 0 -8 13 -13 30 -13 17 0 30 -4 30 -9 0 -10 19 -9 38
2 7 5 12 3 12 -4 0 -7 10 -9 25 -7 14 3 25 1 25 -6 0 -6 4 -5 9 2 6 11 10 10
15 -3 5 -14 9 -15 21 -5 12 10 15 10 15 0 0 -10 3 -10 15 0 11 9 15 9 15 1 0
-7 4 -10 9 -6 5 3 13 0 17 -6 4 -8 9 -7 15 2 5 8 9 9 9 4 0 -7 14 -9 34 -7 18
2 44 -1 56 -8 17 -9 21 -9 15 0 -6 9 -3 9 12 1 14 -7 23 -7 31 1 9 9 12 9 12
-1 0 -11 3 -11 15 -1 10 8 15 9 15 1 0 -7 8 -8 24 -1 17 6 26 5 30 -3 3 -8 7
-9 13 -2 10 12 43 16 43 4 0 -8 33 -5 49 5 5 4 12 0 14 -6 4 -10 7 -10 14 -1
5 8 14 9 23 3 9 -5 19 -5 27 2 9 7 13 7 13 -2 0 -10 3 -10 15 0 8 7 15 8 15 3
0 -11 30 -11 49 1 8 5 16 3 21 -5 7 -10 12 -10 23 0 12 9 16 9 19 -1 4 -10 8
-10 21 1 14 11 17 11 17 0 0 -12 2 -12 9 0 5 7 14 10 20 7 6 -4 11 -2 11 5 0
8 4 8 16 -2 13 -10 17 -10 24 0 6 11 9 11 13 0 4 -9 6 -10 6 -2 1 7 8 10 16 7
8 -4 22 -1 30 6 8 7 15 8 15 3 0 -5 7 -10 15 -10 8 0 12 4 9 9 -3 5 9 6 26 3
22 -4 29 -2 25 6 -6 8 -2 8 14 0 20 -11 26 -8 22 13 -1 5 4 4 12 -2 10 -9 16
-9 25 0 9 9 12 9 12 0 0 -9 5 -10 19 -3 10 6 33 12 50 13 17 1 31 7 31 13 0 5
5 3 10 -5 8 -12 10 -12 10 -1 0 8 3 11 7 8 3 -4 12 -2 20 4 10 9 13 8 13 -2 0
-11 2 -11 10 1 5 8 10 11 10 5 0 -5 5 -3 10 5 7 11 10 11 10 2 0 -9 5 -10 18
-4 9 5 25 8 35 7 9 -2 15 0 12 5 -3 4 2 11 11 14 10 4 13 2 8 -6 -5 -7 -3 -8
7 -2 8 4 21 10 29 11 8 2 24 5 35 7 43 9 65 19 65 30 0 8 2 8 8 -1 5 -8 17 -6
45 7 20 10 35 14 32 9 -4 -5 1 -6 9 -3 9 3 14 10 11 14 -3 5 5 6 17 2 16 -4
19 -2 13 9 -7 12 -6 12 7 1 11 -9 18 -10 23 -2 3 6 11 7 17 4 7 -4 8 -2 4 4
-7 11 6 17 28 13 4 -1 14 4 22 10 8 6 14 8 14 3 0 -4 7 1 16 12 8 10 13 13 9
7 -8 -16 0 -16 26 -2 11 6 17 15 12 22 -4 7 0 7 10 -2 13 -10 17 -10 17 -1 0
7 7 10 15 6 8 -3 19 2 24 12 6 9 11 13 11 8 0 -5 7 -3 15 4 8 7 15 9 15 5 0
-5 9 0 19 9 11 10 25 15 30 11 6 -3 11 -1 11 5 0 6 5 8 10 5 6 -3 13 0 16 9 3
8 13 17 21 20 14 6 14 4 2 -11 -9 -11 -4 -9 15 5 23 17 31 20 38 10 6 -10 8
-9 8 4 0 9 5 20 12 24 7 5 8 3 3 -7 -5 -8 0 -7 12 4 11 9 23 14 26 10 4 -3 7
1 7 10 0 11 8 17 25 17 14 0 28 7 31 15 4 8 10 13 14 10 5 -3 15 2 24 10 8 9
18 16 21 15 21 -1 25 1 19 12 -5 8 -2 9 9 5 10 -3 17 -2 17 3 0 6 5 10 10 10
6 0 20 9 32 20 12 10 25 17 29 14 4 -2 11 2 16 9 4 7 16 17 26 20 10 4 15 11
12 17 -3 5 0 7 8 4 8 -3 18 0 22 5 3 6 11 9 16 6 5 -4 9 2 9 12 0 15 2 16 10
3 8 -13 10 -13 10 1 0 9 8 23 17 30 11 10 14 10 9 2 -4 -7 -2 -13 3 -13 6 0
11 8 11 17 0 9 3 14 6 10 4 -3 14 2 23 11 11 12 13 13 7 2 -5 -8 3 -3 17 12
14 15 28 24 31 21 3 -4 6 -1 6 5 0 7 7 12 16 12 8 0 12 5 9 10 -3 6 1 10 10
10 10 0 13 5 9 12 -5 8 -2 9 9 5 11 -4 17 -1 17 9 0 8 4 13 9 9 6 -3 15 4 21
15 6 11 14 19 19 17 5 -1 23 14 41 33 18 19 27 26 20 15 -8 -11 7 0 32 25 60
59 97 90 109 90 6 0 7 4 4 10 -3 5 5 15 19 21 14 7 23 16 20 20 -3 5 0 9 6 9
6 0 8 4 5 10 -3 6 1 7 10 4 11 -5 14 -2 9 10 -4 9 -3 16 2 15 23 -4 33 2 27
18 -4 11 -3 14 5 9 7 -4 12 -2 12 4 0 6 5 8 10 5 6 -3 10 4 10 17 0 18 2 20
10 8 8 -13 10 -12 10 3 0 9 7 17 16 17 8 0 12 5 9 10 -3 6 -1 10 4 10 6 0 11
7 11 16 0 11 5 14 16 10 15 -6 15 -4 3 11 -8 9 -9 14 -4 11 6 -3 27 12 48 33
21 22 35 39 32 39 -3 0 0 6 7 14 7 8 16 12 19 10 3 -2 13 13 22 32 9 19 24 37
32 40 8 4 12 10 9 15 -5 8 9 13 27 11 4 -1 5 8 2 19 -4 13 -1 19 8 17 8 -2 13
4 13 14 -1 10 2 15 7 12 5 -3 9 -1 9 5 0 6 10 20 23 31 20 19 20 21 2 14 -14
-5 -10 2 13 23 17 16 32 35 32 42 0 8 7 11 16 7 15 -6 15 -4 3 11 -7 10 -10
15 -5 11 8 -7 70 47 72 64 1 4 2 16 3 26 1 13 3 14 10 3 7 -11 10 -9 16 8 3
11 11 21 17 21 5 0 8 7 4 15 -3 8 0 14 7 12 7 -1 11 4 10 11 -2 6 1 12 6 12 6
0 8 9 6 20 -2 12 5 29 18 41 17 15 19 22 9 28 -11 7 -10 9 2 14 9 4 16 10 15
14 -4 21 2 33 13 27 6 -4 8 -3 4 4 -3 6 -1 14 5 18 8 4 7 9 -2 15 -12 7 -12 9
0 9 7 0 11 6 7 15 -3 10 1 15 12 15 15 0 15 2 2 10 -11 7 -11 10 -2 10 7 0 10
5 7 10 -3 6 -1 10 5 10 6 0 8 5 5 10 -3 6 -1 10 6 10 8 0 8 4 -1 16 -11 12
-11 15 1 12 8 -2 13 3 12 10 -2 6 2 12 7 12 6 0 10 7 10 15 0 8 6 15 13 15 9
0 8 3 -2 9 -9 6 -10 11 -2 15 6 4 9 12 5 17 -3 5 0 8 8 7 7 -2 13 6 13 16 0
11 6 21 13 24 6 2 12 8 12 13 0 6 -6 7 -12 4 -7 -4 -2 3 12 15 14 12 18 18 10
14 -12 -6 -13 -5 -3 8 7 8 10 18 6 21 -3 4 -1 7 6 7 6 0 11 6 10 13 -3 24 13
57 25 50 6 -4 4 2 -4 12 -9 11 -10 16 -2 11 8 -5 12 0 12 13 0 12 6 21 13 21
7 0 8 3 2 8 -13 9 -18 35 -5 27 5 -3 10 3 10 14 0 12 4 21 10 21 5 0 6 7 3 17
-4 11 -3 14 5 9 8 -5 10 -2 5 9 -3 10 0 21 8 26 12 7 12 9 0 9 -10 0 -11 3 -2
13 6 8 8 17 4 20 -3 4 -1 7 6 7 9 0 11 8 8 21 -3 12 0 22 9 26 9 3 11 10 5 21
-6 10 -4 20 5 30 11 11 12 17 3 28 -9 11 -8 14 5 14 10 0 14 5 11 10 -4 6 -1
17 5 25 10 11 10 15 1 15 -7 0 -9 5 -4 13 9 15 14 36 14 60 0 9 5 17 11 17 7
0 6 5 -1 14 -8 10 -9 16 -1 21 5 3 10 17 10 31 0 13 6 24 13 24 9 0 8 3 -2 9
-11 7 -11 9 0 14 12 4 12 6 0 6 -11 1 -10 6 5 23 10 12 14 18 8 15 -8 -5 -11
2 -10 18 0 14 5 25 9 25 5 0 5 4 2 10 -3 5 -1 19 5 30 8 15 8 20 -1 20 -8 0
-7 5 2 17 12 15 12 16 -1 8 -13 -8 -13 -6 -2 8 8 9 11 21 7 27 -3 5 -1 10 5
10 6 0 8 5 5 11 -9 14 -12 88 -4 83 11 -7 18 22 9 36 -5 8 -4 22 1 32 6 12 6
18 0 18 -7 0 -7 9 -1 25 7 18 6 25 -3 25 -8 0 -7 4 3 10 8 5 10 10 4 10 -11 0
-14 70 -3 70 3 0 6 7 6 15 0 8 -3 15 -7 15 -8 0 -5 44 5 59 3 6 2 11 -3 11
-11 0 -9 30 2 49 5 8 4 16 -4 21 -8 5 -9 13 -4 21 12 19 12 33 0 41 -6 4 -5
13 3 22 8 9 9 16 3 16 -11 0 -11 18 1 38 5 7 3 12 -3 12 -7 0 -10 7 -6 15 3 8
0 15 -7 15 -8 0 -8 3 2 9 11 7 11 9 0 14 -12 5 -12 6 0 6 11 1 11 4 1 16 -10
12 -10 15 0 15 9 0 7 8 -5 26 -11 18 -12 24 -4 18 12 -6 12 -5 1 8 -10 13 -10
17 0 21 10 4 10 6 -1 6 -10 1 -11 4 -2 15 9 11 8 15 -4 20 -13 4 -14 10 -5 26
8 15 8 20 -2 20 -10 0 -10 2 0 9 11 7 11 9 0 14 -9 3 -13 17 -12 38 1 19 -3
37 -9 41 -9 6 -8 8 2 8 11 0 11 3 1 15 -7 8 -9 15 -4 15 5 0 2 5 -6 10 -12 8
-12 10 -1 10 11 0 11 3 1 15 -7 8 -10 21 -7 30 4 8 0 21 -9 29 -9 10 -11 17
-4 21 8 5 8 11 1 19 -6 7 -8 16 -4 19 3 4 2 7 -4 7 -6 0 -9 11 -8 25 2 14 0
25 -5 25 -5 0 -7 11 -5 25 1 16 -3 25 -11 25 -8 0 -14 5 -14 11 0 5 4 8 8 5 4
-2 8 4 8 14 0 10 -4 16 -8 14 -7 -5 -13 26 -9 49 0 4 -3 7 -7 7 -8 0 -10 7
-14 50 -1 11 -6 20 -10 20 -4 0 -8 9 -8 19 0 11 -5 23 -11 27 -6 3 -9 17 -6
31 3 15 -1 27 -9 30 -8 3 -12 9 -9 13 3 5 1 11 -5 15 -6 4 -8 11 -4 16 3 6 -2
20 -13 31 -12 15 -13 19 -3 14 8 -4 6 0 -4 8 -11 9 -17 16 -13 16 4 0 0 14 -8
31 -9 17 -14 37 -11 44 2 7 -4 21 -14 30 -11 10 -17 21 -15 25 3 5 -1 11 -7
13 -10 4 -10 6 0 6 10 1 10 4 0 15 -7 8 -16 12 -20 10 -4 -3 -5 5 -3 16 2 11
0 20 -5 20 -5 0 -14 10 -21 21 -9 17 -8 20 3 13 7 -4 4 2 -6 14 -11 12 -16 22
-11 22 4 0 -1 8 -12 18 -10 9 -13 13 -6 8 10 -6 12 -4 7 8 -3 9 -10 16 -16 16
-5 0 -6 5 -3 10 3 6 1 10 -6 10 -7 0 -9 3 -6 7 4 3 -1 12 -11 20 -10 9 -11 11
-2 7 13 -7 13 -5 1 9 -9 12 -10 17 -2 17 7 0 -5 16 -26 36 -21 20 -31 33 -23
28 12 -6 13 -5 3 8 -7 8 -10 18 -6 21 3 4 -1 7 -10 7 -9 0 -19 5 -23 12 -5 7
-3 8 5 3 15 -9 -8 35 -24 47 -6 5 -6 8 0 8 5 0 -1 7 -13 16 -12 8 -20 20 -17
25 4 5 1 9 -5 9 -6 0 -8 5 -5 10 3 6 1 10 -5 10 -6 0 -8 5 -5 10 3 6 -1 10
-10 10 -9 0 -13 5 -10 10 3 6 1 10 -6 10 -7 0 -9 3 -6 7 4 3 -5 15 -20 25 -16
10 -22 18 -15 18 10 0 10 3 0 14 -7 8 -16 12 -19 10 -3 -2 -6 2 -6 9 0 17 -33
67 -45 67 -5 0 -7 4 -4 9 3 5 -9 24 -27 42 -17 19 -31 37 -29 42 1 4 -4 7 -12
7 -8 0 -18 5 -22 12 -4 7 -3 8 4 4 7 -4 12 -3 12 3 0 5 -9 13 -20 16 -11 3
-20 13 -20 21 0 8 -5 14 -11 14 -5 0 -7 4 -4 10 3 6 -1 7 -9 4 -12 -5 -16 0
-16 17 0 19 -2 21 -10 9 -8 -12 -10 -12 -10 -1 0 8 -8 20 -17 28 -12 10 -13
12 -3 8 10 -4 9 -2 -2 8 -10 8 -18 18 -18 23 0 5 -10 14 -22 19 -13 6 -28 21
-35 35 -7 14 -13 21 -13 15 0 -5 -7 1 -16 13 -8 12 -20 20 -25 17 -5 -4 -9 3
-9 15 0 12 -4 18 -10 15 -5 -3 -10 1 -10 10 0 9 -4 14 -9 10 -6 -3 -15 4 -21
16 -7 11 -14 18 -17 15 -4 -3 -14 8 -24 24 -11 17 -27 30 -36 30 -15 0 -16 2
-3 10 12 8 11 10 -7 10 -13 0 -23 5 -23 11 0 5 -4 7 -10 4 -5 -3 -10 1 -10 10
0 8 -8 19 -17 22 -10 4 -32 22 -49 40 -17 18 -35 33 -40 33 -5 0 -16 9 -24 19
-7 11 -17 18 -22 15 -4 -3 -8 -1 -8 4 0 5 -12 14 -26 20 -15 7 -22 17 -18 24
4 7 3 8 -4 4 -7 -4 -12 -2 -12 3 0 6 -5 11 -11 11 -7 0 -18 8 -26 18 -9 10
-11 11 -7 2 4 -8 -5 -3 -21 13 -15 15 -34 27 -42 27 -8 0 -11 5 -7 12 5 8 2 9
-9 5 -11 -4 -17 -1 -17 9 0 8 -4 12 -10 9 -5 -3 -10 -2 -10 3 0 4 -16 16 -35
25 -19 9 -35 22 -35 27 0 6 -4 9 -9 5 -5 -3 -16 2 -24 10 -9 8 -23 15 -32 15
-9 0 -14 4 -11 8 2 4 -4 14 -16 21 -16 10 -19 10 -13 -1 4 -7 -2 -3 -12 10
-13 16 -22 20 -31 12 -6 -6 -10 -7 -7 -4 6 10 -19 32 -41 36 -10 2 -25 10 -32
18 -8 8 -11 9 -7 3 4 -9 1 -11 -9 -7 -9 3 -13 10 -10 15 3 5 2 9 -3 10 -29 2
-47 10 -63 24 -10 9 -27 17 -39 18 -11 1 -21 5 -21 9 0 4 -7 8 -15 8 -8 0 -15
5 -15 11 0 5 -5 7 -10 4 -6 -3 -13 1 -16 10 -5 12 -9 13 -20 4 -11 -9 -14 -8
-14 1 0 7 -7 10 -16 6 -8 -3 -12 -2 -9 4 3 5 -4 14 -15 20 -14 7 -20 7 -20 0
0 -6 -7 -6 -19 2 -11 7 -18 15 -15 19 2 4 -6 5 -18 1 -16 -4 -19 -2 -13 9 7
11 5 11 -10 -1 -11 -9 -16 -10 -11 -2 6 11 0 14 -20 11 -4 0 -11 5 -15 13 -7
11 -9 11 -9 0 0 -10 -4 -9 -16 2 -8 9 -20 14 -25 11 -5 -4 -9 -1 -9 6 0 7 -3
9 -7 6 -3 -4 -17 0 -30 8 -17 12 -23 12 -23 3 -1 -8 -7 -5 -15 6 -11 14 -15
16 -15 5 0 -12 -2 -12 -9 0 -5 8 -14 10 -21 6 -9 -6 -11 -4 -5 5 6 10 3 12
-13 8 -12 -4 -23 0 -26 8 -3 8 -12 11 -22 7 -9 -3 -20 0 -25 8 -6 10 -9 10 -9
2 0 -7 -7 -10 -15 -7 -8 4 -13 9 -11 13 3 4 -6 8 -20 9 -47 3 -54 5 -54 16 0
6 -5 4 -10 -4 -8 -12 -10 -12 -10 -1 0 8 -7 11 -20 8 -10 -3 -27 1 -37 8 -11
9 -22 10 -29 4 -7 -6 -16 -4 -23 5 -7 8 -19 12 -27 9 -8 -3 -14 0 -14 6 0 9
-5 9 -20 1 -15 -8 -20 -8 -20 1 0 6 -7 9 -15 5 -8 -3 -15 0 -15 7 0 8 -4 6
-10 -3 -8 -12 -10 -12 -10 -1 0 8 -3 11 -7 8 -3 -4 -12 -2 -20 4 -10 9 -13 8
-13 -1 0 -9 -4 -9 -17 1 -14 12 -16 12 -9 -1 7 -13 6 -13 -6 0 -8 9 -30 15
-55 15 -24 0 -43 4 -43 8 0 4 -9 3 -21 -3 -16 -9 -24 -8 -39 5 -14 13 -19 13
-23 3 -4 -10 -6 -10 -6 1 -1 10 -4 11 -15 2 -9 -8 -16 -8 -20 -2 -9 14 -622
15 -631 1 -3 -6 -11 -8 -16 -4 -17 10 -59 12 -59 3 0 -5 -5 -9 -11 -9 -5 0 -7
5 -4 10 3 6 4 10 1 10 -3 0 -10 -8 -15 -17z"/>
</g>
</svg>
